<mxfile host="app.diagrams.net" modified="2023-01-06T22:52:55.391Z" agent="5.0 (Macintosh; Intel Mac OS X 10_15_7) AppleWebKit/537.36 (KHTML, like Gecko) Chrome/108.0.0.0 Safari/537.36" etag="R9xGcpJnazpbn-uxMkav" version="20.8.2" type="github">
  <diagram id="K58_s8Gbkm4PeMNnpNm7" name="Page-1">
    <mxGraphModel dx="1339" dy="1085" grid="1" gridSize="10" guides="1" tooltips="1" connect="1" arrows="1" fold="1" page="1" pageScale="1" pageWidth="1100" pageHeight="850" math="0" shadow="0">
      <root>
        <mxCell id="0" />
        <mxCell id="1" parent="0" />
        <mxCell id="mMLabcKB-1JlVjVl4o1c-1" value="AWS RDS&lt;br&gt;Dataware" style="shape=cylinder3;whiteSpace=wrap;html=1;boundedLbl=1;backgroundOutline=1;size=15;" parent="1" vertex="1">
          <mxGeometry x="630" y="327" width="100" height="110" as="geometry" />
        </mxCell>
        <mxCell id="mMLabcKB-1JlVjVl4o1c-4" value="" style="endArrow=classic;html=1;rounded=0;exitX=1;exitY=0.5;exitDx=0;exitDy=0;exitPerimeter=0;entryX=0;entryY=0.5;entryDx=0;entryDy=0;entryPerimeter=0;" parent="1" source="mMLabcKB-1JlVjVl4o1c-1" target="mMLabcKB-1JlVjVl4o1c-5" edge="1">
          <mxGeometry width="50" height="50" relative="1" as="geometry">
            <mxPoint x="740" y="392" as="sourcePoint" />
            <mxPoint x="830" y="392" as="targetPoint" />
          </mxGeometry>
        </mxCell>
        <mxCell id="mMLabcKB-1JlVjVl4o1c-5" value="AWS RDS Datamarts" style="shape=cylinder3;whiteSpace=wrap;html=1;boundedLbl=1;backgroundOutline=1;size=15;" parent="1" vertex="1">
          <mxGeometry x="840" y="332" width="80" height="100" as="geometry" />
        </mxCell>
        <mxCell id="mMLabcKB-1JlVjVl4o1c-7" value="" style="endArrow=classic;html=1;rounded=0;exitX=1;exitY=0.5;exitDx=0;exitDy=0;exitPerimeter=0;" parent="1" source="mMLabcKB-1JlVjVl4o1c-5" edge="1">
          <mxGeometry width="50" height="50" relative="1" as="geometry">
            <mxPoint x="980" y="392" as="sourcePoint" />
            <mxPoint x="980" y="382" as="targetPoint" />
          </mxGeometry>
        </mxCell>
        <mxCell id="mMLabcKB-1JlVjVl4o1c-13" value="Data Report" style="shape=note;whiteSpace=wrap;html=1;backgroundOutline=1;darkOpacity=0.05;" parent="1" vertex="1">
          <mxGeometry x="980" y="332" width="80" height="100" as="geometry" />
        </mxCell>
        <mxCell id="mMLabcKB-1JlVjVl4o1c-15" value="Web Data Source" style="swimlane;fontStyle=0;childLayout=stackLayout;horizontal=1;startSize=26;fillColor=none;horizontalStack=0;resizeParent=1;resizeParentMax=0;resizeLast=0;collapsible=1;marginBottom=0;html=1;shadow=0;" parent="1" vertex="1">
          <mxGeometry x="30" y="330" width="140" height="104" as="geometry" />
        </mxCell>
        <mxCell id="mMLabcKB-1JlVjVl4o1c-16" value="CPI" style="text;strokeColor=none;fillColor=none;align=left;verticalAlign=top;spacingLeft=4;spacingRight=4;overflow=hidden;rotatable=0;points=[[0,0.5],[1,0.5]];portConstraint=eastwest;whiteSpace=wrap;html=1;" parent="mMLabcKB-1JlVjVl4o1c-15" vertex="1">
          <mxGeometry y="26" width="140" height="26" as="geometry" />
        </mxCell>
        <mxCell id="mMLabcKB-1JlVjVl4o1c-17" value="Stock" style="text;strokeColor=none;fillColor=none;align=left;verticalAlign=top;spacingLeft=4;spacingRight=4;overflow=hidden;rotatable=0;points=[[0,0.5],[1,0.5]];portConstraint=eastwest;whiteSpace=wrap;html=1;" parent="mMLabcKB-1JlVjVl4o1c-15" vertex="1">
          <mxGeometry y="52" width="140" height="26" as="geometry" />
        </mxCell>
        <mxCell id="mMLabcKB-1JlVjVl4o1c-18" value="Market_Capacity" style="text;strokeColor=none;fillColor=none;align=left;verticalAlign=top;spacingLeft=4;spacingRight=4;overflow=hidden;rotatable=0;points=[[0,0.5],[1,0.5]];portConstraint=eastwest;whiteSpace=wrap;html=1;" parent="mMLabcKB-1JlVjVl4o1c-15" vertex="1">
          <mxGeometry y="78" width="140" height="26" as="geometry" />
        </mxCell>
        <mxCell id="tSB1JJWcoIhf7wF7Q8ZE-1" value="" style="endArrow=classic;html=1;rounded=0;exitX=1;exitY=0.5;exitDx=0;exitDy=0;entryX=0;entryY=0.5;entryDx=0;entryDy=0;" edge="1" parent="1" source="mMLabcKB-1JlVjVl4o1c-17" target="tSB1JJWcoIhf7wF7Q8ZE-24">
          <mxGeometry width="50" height="50" relative="1" as="geometry">
            <mxPoint x="520" y="580" as="sourcePoint" />
            <mxPoint x="240" y="395" as="targetPoint" />
            <Array as="points" />
          </mxGeometry>
        </mxCell>
        <mxCell id="tSB1JJWcoIhf7wF7Q8ZE-4" value="API" style="text;html=1;align=center;verticalAlign=middle;resizable=0;points=[];autosize=1;strokeColor=none;fillColor=none;shadow=0;" vertex="1" parent="1">
          <mxGeometry x="180" y="310" width="40" height="30" as="geometry" />
        </mxCell>
        <mxCell id="tSB1JJWcoIhf7wF7Q8ZE-5" value="&lt;font style=&quot;font-size: 24px;&quot;&gt;MySQL&lt;/font&gt;" style="rounded=0;whiteSpace=wrap;html=1;shadow=0;glass=0;gradientColor=none;fillStyle=hatch;align=center;verticalAlign=top;" vertex="1" parent="1">
          <mxGeometry x="590" y="247" width="350" height="270" as="geometry" />
        </mxCell>
        <mxCell id="tSB1JJWcoIhf7wF7Q8ZE-6" value="&lt;span style=&quot;font-size: 12px;&quot;&gt;script&amp;nbsp;&lt;/span&gt;" style="text;html=1;strokeColor=none;fillColor=none;align=center;verticalAlign=middle;whiteSpace=wrap;rounded=0;shadow=0;glass=0;sketch=0;fillStyle=hatch;fontSize=24;" vertex="1" parent="1">
          <mxGeometry x="740" y="350" width="80" height="33" as="geometry" />
        </mxCell>
        <mxCell id="tSB1JJWcoIhf7wF7Q8ZE-19" value="cpi.csv" style="shape=table;startSize=30;container=1;collapsible=0;childLayout=tableLayout;fontStyle=1;align=center;rounded=0;shadow=0;glass=0;sketch=0;fillStyle=hatch;fontSize=12;gradientColor=none;" vertex="1" parent="1">
          <mxGeometry x="270" y="177" width="180" height="150" as="geometry" />
        </mxCell>
        <mxCell id="tSB1JJWcoIhf7wF7Q8ZE-20" value="" style="shape=tableRow;horizontal=0;startSize=0;swimlaneHead=0;swimlaneBody=0;top=0;left=0;bottom=0;right=0;collapsible=0;dropTarget=0;fillColor=none;points=[[0,0.5],[1,0.5]];portConstraint=eastwest;rounded=0;shadow=0;glass=0;sketch=0;fillStyle=hatch;fontSize=12;" vertex="1" parent="tSB1JJWcoIhf7wF7Q8ZE-19">
          <mxGeometry y="30" width="180" height="40" as="geometry" />
        </mxCell>
        <mxCell id="tSB1JJWcoIhf7wF7Q8ZE-21" value="" style="shape=partialRectangle;html=1;whiteSpace=wrap;connectable=0;fillColor=none;top=0;left=0;bottom=0;right=0;overflow=hidden;rounded=0;shadow=0;glass=0;sketch=0;fillStyle=hatch;fontSize=12;" vertex="1" parent="tSB1JJWcoIhf7wF7Q8ZE-20">
          <mxGeometry width="60" height="40" as="geometry">
            <mxRectangle width="60" height="40" as="alternateBounds" />
          </mxGeometry>
        </mxCell>
        <mxCell id="tSB1JJWcoIhf7wF7Q8ZE-22" value="" style="shape=partialRectangle;html=1;whiteSpace=wrap;connectable=0;fillColor=none;top=0;left=0;bottom=0;right=0;overflow=hidden;rounded=0;shadow=0;glass=0;sketch=0;fillStyle=hatch;fontSize=12;" vertex="1" parent="tSB1JJWcoIhf7wF7Q8ZE-20">
          <mxGeometry x="60" width="60" height="40" as="geometry">
            <mxRectangle width="60" height="40" as="alternateBounds" />
          </mxGeometry>
        </mxCell>
        <mxCell id="tSB1JJWcoIhf7wF7Q8ZE-23" value="" style="shape=partialRectangle;html=1;whiteSpace=wrap;connectable=0;fillColor=none;top=0;left=0;bottom=0;right=0;overflow=hidden;rounded=0;shadow=0;glass=0;sketch=0;fillStyle=hatch;fontSize=12;" vertex="1" parent="tSB1JJWcoIhf7wF7Q8ZE-20">
          <mxGeometry x="120" width="60" height="40" as="geometry">
            <mxRectangle width="60" height="40" as="alternateBounds" />
          </mxGeometry>
        </mxCell>
        <mxCell id="tSB1JJWcoIhf7wF7Q8ZE-24" value="" style="shape=tableRow;horizontal=0;startSize=0;swimlaneHead=0;swimlaneBody=0;top=0;left=0;bottom=0;right=0;collapsible=0;dropTarget=0;fillColor=none;points=[[0,0.5],[1,0.5]];portConstraint=eastwest;rounded=0;shadow=0;glass=0;sketch=0;fillStyle=hatch;fontSize=12;" vertex="1" parent="tSB1JJWcoIhf7wF7Q8ZE-19">
          <mxGeometry y="70" width="180" height="40" as="geometry" />
        </mxCell>
        <mxCell id="tSB1JJWcoIhf7wF7Q8ZE-25" value="" style="shape=partialRectangle;html=1;whiteSpace=wrap;connectable=0;fillColor=none;top=0;left=0;bottom=0;right=0;overflow=hidden;rounded=0;shadow=0;glass=0;sketch=0;fillStyle=hatch;fontSize=12;" vertex="1" parent="tSB1JJWcoIhf7wF7Q8ZE-24">
          <mxGeometry width="60" height="40" as="geometry">
            <mxRectangle width="60" height="40" as="alternateBounds" />
          </mxGeometry>
        </mxCell>
        <mxCell id="tSB1JJWcoIhf7wF7Q8ZE-26" value="" style="shape=partialRectangle;html=1;whiteSpace=wrap;connectable=0;fillColor=none;top=0;left=0;bottom=0;right=0;overflow=hidden;rounded=0;shadow=0;glass=0;sketch=0;fillStyle=hatch;fontSize=12;" vertex="1" parent="tSB1JJWcoIhf7wF7Q8ZE-24">
          <mxGeometry x="60" width="60" height="40" as="geometry">
            <mxRectangle width="60" height="40" as="alternateBounds" />
          </mxGeometry>
        </mxCell>
        <mxCell id="tSB1JJWcoIhf7wF7Q8ZE-27" value="" style="shape=partialRectangle;html=1;whiteSpace=wrap;connectable=0;fillColor=none;top=0;left=0;bottom=0;right=0;overflow=hidden;rounded=0;shadow=0;glass=0;sketch=0;fillStyle=hatch;fontSize=12;" vertex="1" parent="tSB1JJWcoIhf7wF7Q8ZE-24">
          <mxGeometry x="120" width="60" height="40" as="geometry">
            <mxRectangle width="60" height="40" as="alternateBounds" />
          </mxGeometry>
        </mxCell>
        <mxCell id="tSB1JJWcoIhf7wF7Q8ZE-28" value="" style="shape=tableRow;horizontal=0;startSize=0;swimlaneHead=0;swimlaneBody=0;top=0;left=0;bottom=0;right=0;collapsible=0;dropTarget=0;fillColor=none;points=[[0,0.5],[1,0.5]];portConstraint=eastwest;rounded=0;shadow=0;glass=0;sketch=0;fillStyle=hatch;fontSize=12;" vertex="1" parent="tSB1JJWcoIhf7wF7Q8ZE-19">
          <mxGeometry y="110" width="180" height="40" as="geometry" />
        </mxCell>
        <mxCell id="tSB1JJWcoIhf7wF7Q8ZE-29" value="" style="shape=partialRectangle;html=1;whiteSpace=wrap;connectable=0;fillColor=none;top=0;left=0;bottom=0;right=0;overflow=hidden;rounded=0;shadow=0;glass=0;sketch=0;fillStyle=hatch;fontSize=12;" vertex="1" parent="tSB1JJWcoIhf7wF7Q8ZE-28">
          <mxGeometry width="60" height="40" as="geometry">
            <mxRectangle width="60" height="40" as="alternateBounds" />
          </mxGeometry>
        </mxCell>
        <mxCell id="tSB1JJWcoIhf7wF7Q8ZE-30" value="" style="shape=partialRectangle;html=1;whiteSpace=wrap;connectable=0;fillColor=none;top=0;left=0;bottom=0;right=0;overflow=hidden;rounded=0;shadow=0;glass=0;sketch=0;fillStyle=hatch;fontSize=12;" vertex="1" parent="tSB1JJWcoIhf7wF7Q8ZE-28">
          <mxGeometry x="60" width="60" height="40" as="geometry">
            <mxRectangle width="60" height="40" as="alternateBounds" />
          </mxGeometry>
        </mxCell>
        <mxCell id="tSB1JJWcoIhf7wF7Q8ZE-31" value="" style="shape=partialRectangle;html=1;whiteSpace=wrap;connectable=0;fillColor=none;top=0;left=0;bottom=0;right=0;overflow=hidden;rounded=0;shadow=0;glass=0;sketch=0;fillStyle=hatch;fontSize=12;" vertex="1" parent="tSB1JJWcoIhf7wF7Q8ZE-28">
          <mxGeometry x="120" width="60" height="40" as="geometry">
            <mxRectangle width="60" height="40" as="alternateBounds" />
          </mxGeometry>
        </mxCell>
        <mxCell id="tSB1JJWcoIhf7wF7Q8ZE-32" value="stock.csv" style="shape=table;startSize=30;container=1;collapsible=0;childLayout=tableLayout;fontStyle=1;align=center;rounded=0;shadow=0;glass=0;sketch=0;fillStyle=hatch;fontSize=12;gradientColor=none;" vertex="1" parent="1">
          <mxGeometry x="270" y="367" width="180" height="150" as="geometry" />
        </mxCell>
        <mxCell id="tSB1JJWcoIhf7wF7Q8ZE-33" value="" style="shape=tableRow;horizontal=0;startSize=0;swimlaneHead=0;swimlaneBody=0;top=0;left=0;bottom=0;right=0;collapsible=0;dropTarget=0;fillColor=none;points=[[0,0.5],[1,0.5]];portConstraint=eastwest;rounded=0;shadow=0;glass=0;sketch=0;fillStyle=hatch;fontSize=12;" vertex="1" parent="tSB1JJWcoIhf7wF7Q8ZE-32">
          <mxGeometry y="30" width="180" height="40" as="geometry" />
        </mxCell>
        <mxCell id="tSB1JJWcoIhf7wF7Q8ZE-34" value="" style="shape=partialRectangle;html=1;whiteSpace=wrap;connectable=0;fillColor=none;top=0;left=0;bottom=0;right=0;overflow=hidden;rounded=0;shadow=0;glass=0;sketch=0;fillStyle=hatch;fontSize=12;" vertex="1" parent="tSB1JJWcoIhf7wF7Q8ZE-33">
          <mxGeometry width="60" height="40" as="geometry">
            <mxRectangle width="60" height="40" as="alternateBounds" />
          </mxGeometry>
        </mxCell>
        <mxCell id="tSB1JJWcoIhf7wF7Q8ZE-35" value="" style="shape=partialRectangle;html=1;whiteSpace=wrap;connectable=0;fillColor=none;top=0;left=0;bottom=0;right=0;overflow=hidden;rounded=0;shadow=0;glass=0;sketch=0;fillStyle=hatch;fontSize=12;" vertex="1" parent="tSB1JJWcoIhf7wF7Q8ZE-33">
          <mxGeometry x="60" width="60" height="40" as="geometry">
            <mxRectangle width="60" height="40" as="alternateBounds" />
          </mxGeometry>
        </mxCell>
        <mxCell id="tSB1JJWcoIhf7wF7Q8ZE-36" value="" style="shape=partialRectangle;html=1;whiteSpace=wrap;connectable=0;fillColor=none;top=0;left=0;bottom=0;right=0;overflow=hidden;rounded=0;shadow=0;glass=0;sketch=0;fillStyle=hatch;fontSize=12;" vertex="1" parent="tSB1JJWcoIhf7wF7Q8ZE-33">
          <mxGeometry x="120" width="60" height="40" as="geometry">
            <mxRectangle width="60" height="40" as="alternateBounds" />
          </mxGeometry>
        </mxCell>
        <mxCell id="tSB1JJWcoIhf7wF7Q8ZE-37" value="" style="shape=tableRow;horizontal=0;startSize=0;swimlaneHead=0;swimlaneBody=0;top=0;left=0;bottom=0;right=0;collapsible=0;dropTarget=0;fillColor=none;points=[[0,0.5],[1,0.5]];portConstraint=eastwest;rounded=0;shadow=0;glass=0;sketch=0;fillStyle=hatch;fontSize=12;" vertex="1" parent="tSB1JJWcoIhf7wF7Q8ZE-32">
          <mxGeometry y="70" width="180" height="40" as="geometry" />
        </mxCell>
        <mxCell id="tSB1JJWcoIhf7wF7Q8ZE-38" value="" style="shape=partialRectangle;html=1;whiteSpace=wrap;connectable=0;fillColor=none;top=0;left=0;bottom=0;right=0;overflow=hidden;rounded=0;shadow=0;glass=0;sketch=0;fillStyle=hatch;fontSize=12;" vertex="1" parent="tSB1JJWcoIhf7wF7Q8ZE-37">
          <mxGeometry width="60" height="40" as="geometry">
            <mxRectangle width="60" height="40" as="alternateBounds" />
          </mxGeometry>
        </mxCell>
        <mxCell id="tSB1JJWcoIhf7wF7Q8ZE-39" value="" style="shape=partialRectangle;html=1;whiteSpace=wrap;connectable=0;fillColor=none;top=0;left=0;bottom=0;right=0;overflow=hidden;rounded=0;shadow=0;glass=0;sketch=0;fillStyle=hatch;fontSize=12;" vertex="1" parent="tSB1JJWcoIhf7wF7Q8ZE-37">
          <mxGeometry x="60" width="60" height="40" as="geometry">
            <mxRectangle width="60" height="40" as="alternateBounds" />
          </mxGeometry>
        </mxCell>
        <mxCell id="tSB1JJWcoIhf7wF7Q8ZE-40" value="" style="shape=partialRectangle;html=1;whiteSpace=wrap;connectable=0;fillColor=none;top=0;left=0;bottom=0;right=0;overflow=hidden;rounded=0;shadow=0;glass=0;sketch=0;fillStyle=hatch;fontSize=12;" vertex="1" parent="tSB1JJWcoIhf7wF7Q8ZE-37">
          <mxGeometry x="120" width="60" height="40" as="geometry">
            <mxRectangle width="60" height="40" as="alternateBounds" />
          </mxGeometry>
        </mxCell>
        <mxCell id="tSB1JJWcoIhf7wF7Q8ZE-41" value="" style="shape=tableRow;horizontal=0;startSize=0;swimlaneHead=0;swimlaneBody=0;top=0;left=0;bottom=0;right=0;collapsible=0;dropTarget=0;fillColor=none;points=[[0,0.5],[1,0.5]];portConstraint=eastwest;rounded=0;shadow=0;glass=0;sketch=0;fillStyle=hatch;fontSize=12;" vertex="1" parent="tSB1JJWcoIhf7wF7Q8ZE-32">
          <mxGeometry y="110" width="180" height="40" as="geometry" />
        </mxCell>
        <mxCell id="tSB1JJWcoIhf7wF7Q8ZE-42" value="" style="shape=partialRectangle;html=1;whiteSpace=wrap;connectable=0;fillColor=none;top=0;left=0;bottom=0;right=0;overflow=hidden;rounded=0;shadow=0;glass=0;sketch=0;fillStyle=hatch;fontSize=12;" vertex="1" parent="tSB1JJWcoIhf7wF7Q8ZE-41">
          <mxGeometry width="60" height="40" as="geometry">
            <mxRectangle width="60" height="40" as="alternateBounds" />
          </mxGeometry>
        </mxCell>
        <mxCell id="tSB1JJWcoIhf7wF7Q8ZE-43" value="" style="shape=partialRectangle;html=1;whiteSpace=wrap;connectable=0;fillColor=none;top=0;left=0;bottom=0;right=0;overflow=hidden;rounded=0;shadow=0;glass=0;sketch=0;fillStyle=hatch;fontSize=12;" vertex="1" parent="tSB1JJWcoIhf7wF7Q8ZE-41">
          <mxGeometry x="60" width="60" height="40" as="geometry">
            <mxRectangle width="60" height="40" as="alternateBounds" />
          </mxGeometry>
        </mxCell>
        <mxCell id="tSB1JJWcoIhf7wF7Q8ZE-44" value="" style="shape=partialRectangle;html=1;whiteSpace=wrap;connectable=0;fillColor=none;top=0;left=0;bottom=0;right=0;overflow=hidden;rounded=0;shadow=0;glass=0;sketch=0;fillStyle=hatch;fontSize=12;" vertex="1" parent="tSB1JJWcoIhf7wF7Q8ZE-41">
          <mxGeometry x="120" width="60" height="40" as="geometry">
            <mxRectangle width="60" height="40" as="alternateBounds" />
          </mxGeometry>
        </mxCell>
        <mxCell id="tSB1JJWcoIhf7wF7Q8ZE-45" value="market_capacity" style="shape=table;startSize=30;container=1;collapsible=0;childLayout=tableLayout;fontStyle=1;align=center;rounded=0;shadow=0;glass=0;sketch=0;fillStyle=hatch;fontSize=12;gradientColor=none;" vertex="1" parent="1">
          <mxGeometry x="270" y="550" width="180" height="150" as="geometry" />
        </mxCell>
        <mxCell id="tSB1JJWcoIhf7wF7Q8ZE-46" value="" style="shape=tableRow;horizontal=0;startSize=0;swimlaneHead=0;swimlaneBody=0;top=0;left=0;bottom=0;right=0;collapsible=0;dropTarget=0;fillColor=none;points=[[0,0.5],[1,0.5]];portConstraint=eastwest;rounded=0;shadow=0;glass=0;sketch=0;fillStyle=hatch;fontSize=12;" vertex="1" parent="tSB1JJWcoIhf7wF7Q8ZE-45">
          <mxGeometry y="30" width="180" height="40" as="geometry" />
        </mxCell>
        <mxCell id="tSB1JJWcoIhf7wF7Q8ZE-47" value="" style="shape=partialRectangle;html=1;whiteSpace=wrap;connectable=0;fillColor=none;top=0;left=0;bottom=0;right=0;overflow=hidden;rounded=0;shadow=0;glass=0;sketch=0;fillStyle=hatch;fontSize=12;" vertex="1" parent="tSB1JJWcoIhf7wF7Q8ZE-46">
          <mxGeometry width="60" height="40" as="geometry">
            <mxRectangle width="60" height="40" as="alternateBounds" />
          </mxGeometry>
        </mxCell>
        <mxCell id="tSB1JJWcoIhf7wF7Q8ZE-48" value="" style="shape=partialRectangle;html=1;whiteSpace=wrap;connectable=0;fillColor=none;top=0;left=0;bottom=0;right=0;overflow=hidden;rounded=0;shadow=0;glass=0;sketch=0;fillStyle=hatch;fontSize=12;" vertex="1" parent="tSB1JJWcoIhf7wF7Q8ZE-46">
          <mxGeometry x="60" width="60" height="40" as="geometry">
            <mxRectangle width="60" height="40" as="alternateBounds" />
          </mxGeometry>
        </mxCell>
        <mxCell id="tSB1JJWcoIhf7wF7Q8ZE-49" value="" style="shape=partialRectangle;html=1;whiteSpace=wrap;connectable=0;fillColor=none;top=0;left=0;bottom=0;right=0;overflow=hidden;rounded=0;shadow=0;glass=0;sketch=0;fillStyle=hatch;fontSize=12;" vertex="1" parent="tSB1JJWcoIhf7wF7Q8ZE-46">
          <mxGeometry x="120" width="60" height="40" as="geometry">
            <mxRectangle width="60" height="40" as="alternateBounds" />
          </mxGeometry>
        </mxCell>
        <mxCell id="tSB1JJWcoIhf7wF7Q8ZE-50" value="" style="shape=tableRow;horizontal=0;startSize=0;swimlaneHead=0;swimlaneBody=0;top=0;left=0;bottom=0;right=0;collapsible=0;dropTarget=0;fillColor=none;points=[[0,0.5],[1,0.5]];portConstraint=eastwest;rounded=0;shadow=0;glass=0;sketch=0;fillStyle=hatch;fontSize=12;" vertex="1" parent="tSB1JJWcoIhf7wF7Q8ZE-45">
          <mxGeometry y="70" width="180" height="40" as="geometry" />
        </mxCell>
        <mxCell id="tSB1JJWcoIhf7wF7Q8ZE-51" value="" style="shape=partialRectangle;html=1;whiteSpace=wrap;connectable=0;fillColor=none;top=0;left=0;bottom=0;right=0;overflow=hidden;rounded=0;shadow=0;glass=0;sketch=0;fillStyle=hatch;fontSize=12;" vertex="1" parent="tSB1JJWcoIhf7wF7Q8ZE-50">
          <mxGeometry width="60" height="40" as="geometry">
            <mxRectangle width="60" height="40" as="alternateBounds" />
          </mxGeometry>
        </mxCell>
        <mxCell id="tSB1JJWcoIhf7wF7Q8ZE-52" value="" style="shape=partialRectangle;html=1;whiteSpace=wrap;connectable=0;fillColor=none;top=0;left=0;bottom=0;right=0;overflow=hidden;rounded=0;shadow=0;glass=0;sketch=0;fillStyle=hatch;fontSize=12;" vertex="1" parent="tSB1JJWcoIhf7wF7Q8ZE-50">
          <mxGeometry x="60" width="60" height="40" as="geometry">
            <mxRectangle width="60" height="40" as="alternateBounds" />
          </mxGeometry>
        </mxCell>
        <mxCell id="tSB1JJWcoIhf7wF7Q8ZE-53" value="" style="shape=partialRectangle;html=1;whiteSpace=wrap;connectable=0;fillColor=none;top=0;left=0;bottom=0;right=0;overflow=hidden;rounded=0;shadow=0;glass=0;sketch=0;fillStyle=hatch;fontSize=12;" vertex="1" parent="tSB1JJWcoIhf7wF7Q8ZE-50">
          <mxGeometry x="120" width="60" height="40" as="geometry">
            <mxRectangle width="60" height="40" as="alternateBounds" />
          </mxGeometry>
        </mxCell>
        <mxCell id="tSB1JJWcoIhf7wF7Q8ZE-54" value="" style="shape=tableRow;horizontal=0;startSize=0;swimlaneHead=0;swimlaneBody=0;top=0;left=0;bottom=0;right=0;collapsible=0;dropTarget=0;fillColor=none;points=[[0,0.5],[1,0.5]];portConstraint=eastwest;rounded=0;shadow=0;glass=0;sketch=0;fillStyle=hatch;fontSize=12;" vertex="1" parent="tSB1JJWcoIhf7wF7Q8ZE-45">
          <mxGeometry y="110" width="180" height="40" as="geometry" />
        </mxCell>
        <mxCell id="tSB1JJWcoIhf7wF7Q8ZE-55" value="" style="shape=partialRectangle;html=1;whiteSpace=wrap;connectable=0;fillColor=none;top=0;left=0;bottom=0;right=0;overflow=hidden;rounded=0;shadow=0;glass=0;sketch=0;fillStyle=hatch;fontSize=12;" vertex="1" parent="tSB1JJWcoIhf7wF7Q8ZE-54">
          <mxGeometry width="60" height="40" as="geometry">
            <mxRectangle width="60" height="40" as="alternateBounds" />
          </mxGeometry>
        </mxCell>
        <mxCell id="tSB1JJWcoIhf7wF7Q8ZE-56" value="" style="shape=partialRectangle;html=1;whiteSpace=wrap;connectable=0;fillColor=none;top=0;left=0;bottom=0;right=0;overflow=hidden;rounded=0;shadow=0;glass=0;sketch=0;fillStyle=hatch;fontSize=12;" vertex="1" parent="tSB1JJWcoIhf7wF7Q8ZE-54">
          <mxGeometry x="60" width="60" height="40" as="geometry">
            <mxRectangle width="60" height="40" as="alternateBounds" />
          </mxGeometry>
        </mxCell>
        <mxCell id="tSB1JJWcoIhf7wF7Q8ZE-57" value="" style="shape=partialRectangle;html=1;whiteSpace=wrap;connectable=0;fillColor=none;top=0;left=0;bottom=0;right=0;overflow=hidden;rounded=0;shadow=0;glass=0;sketch=0;fillStyle=hatch;fontSize=12;" vertex="1" parent="tSB1JJWcoIhf7wF7Q8ZE-54">
          <mxGeometry x="120" width="60" height="40" as="geometry">
            <mxRectangle width="60" height="40" as="alternateBounds" />
          </mxGeometry>
        </mxCell>
        <mxCell id="tSB1JJWcoIhf7wF7Q8ZE-62" value="" style="endArrow=classic;html=1;rounded=0;entryX=0;entryY=0.5;entryDx=0;entryDy=0;" edge="1" parent="1" target="tSB1JJWcoIhf7wF7Q8ZE-37">
          <mxGeometry width="50" height="50" relative="1" as="geometry">
            <mxPoint x="170" y="395" as="sourcePoint" />
            <mxPoint x="240" y="390" as="targetPoint" />
            <Array as="points" />
          </mxGeometry>
        </mxCell>
        <mxCell id="tSB1JJWcoIhf7wF7Q8ZE-63" value="API" style="text;html=1;align=center;verticalAlign=middle;resizable=0;points=[];autosize=1;strokeColor=none;fillColor=none;shadow=0;" vertex="1" parent="1">
          <mxGeometry x="190" y="380" width="40" height="30" as="geometry" />
        </mxCell>
        <mxCell id="tSB1JJWcoIhf7wF7Q8ZE-64" value="" style="endArrow=classic;html=1;rounded=0;exitX=1;exitY=0.5;exitDx=0;exitDy=0;entryX=0;entryY=0.5;entryDx=0;entryDy=0;" edge="1" parent="1" source="mMLabcKB-1JlVjVl4o1c-17" target="tSB1JJWcoIhf7wF7Q8ZE-50">
          <mxGeometry width="50" height="50" relative="1" as="geometry">
            <mxPoint x="120" y="658" as="sourcePoint" />
            <mxPoint x="190" y="658" as="targetPoint" />
            <Array as="points" />
          </mxGeometry>
        </mxCell>
        <mxCell id="tSB1JJWcoIhf7wF7Q8ZE-65" value="API" style="text;html=1;align=center;verticalAlign=middle;resizable=0;points=[];autosize=1;strokeColor=none;fillColor=none;shadow=0;" vertex="1" parent="1">
          <mxGeometry x="160" y="440" width="40" height="30" as="geometry" />
        </mxCell>
      </root>
    </mxGraphModel>
  </diagram>
</mxfile>
